<svg xmlns="http://www.w3.org/2000/svg" viewBox="0 0 36 36"><defs><style>.cls-1{fill:#fa8e07;}</style></defs><g id="图层_2" data-name="图层 2"><g id="图层_1-2" data-name="图层 1"><path class="cls-1" d="M33.75,0H2.25A2.07,2.07,0,0,0,0,1.8V34.2A2.07,2.07,0,0,0,2.25,36h31.5A2.07,2.07,0,0,0,36,34.2V1.8A2.07,2.07,0,0,0,33.75,0ZM7.88,31.5a2.25,2.25,0,1,1,2.25-2.25A2.25,2.25,0,0,1,7.88,31.5Zm0-11.25A2.25,2.25,0,1,1,10.13,18,2.25,2.25,0,0,1,7.88,20.25ZM7.88,9a2.25,2.25,0,1,1,2.25-2.25A2.25,2.25,0,0,1,7.88,9ZM28.12,30.5H14.62a1.25,1.25,0,1,1,0-2.5h13.5a1.25,1.25,0,1,1,0,2.5Zm0-11.25H14.62a1.25,1.25,0,1,1,0-2.5h13.5a1.25,1.25,0,1,1,0,2.5ZM28.12,8H14.62a1.25,1.25,0,1,1,0-2.5h13.5a1.25,1.25,0,1,1,0,2.5Z"/></g></g></svg>