<svg xmlns="http://www.w3.org/2000/svg" xmlns:xlink="http://www.w3.org/1999/xlink" viewBox="0 0 24 24"><defs><style>.cls-1{fill:url(#未命名的渐变_360);}.cls-2{fill:none;}.cls-3{fill:#fff;}</style><linearGradient id="未命名的渐变_360" x1="11.74" y1="28.06" x2="12.05" y2="8.89" gradientUnits="userSpaceOnUse"><stop offset="0" stop-color="#5c1a8e"/><stop offset="1" stop-color="#9b308e"/></linearGradient></defs><g id="图层_2" data-name="图层 2"><g id="图层_1-2" data-name="图层 1"><circle class="cls-1" cx="12" cy="12" r="12"/><rect class="cls-2" x="4.17" y="4.17" width="15.65" height="15.65"/><path class="cls-3" d="M11.29,18.4v-.76A5,5,0,0,1,7,12.71V9.15a5,5,0,1,1,10,0v3.56a5,5,0,0,1-4.27,4.93v.76h2.85v1.43H8.44V18.4ZM12,9.87a.72.72,0,1,1,.71-.72A.71.71,0,0,1,12,9.87Zm0,1.42A2.14,2.14,0,1,0,9.87,9.15,2.13,2.13,0,0,0,12,11.29Z"/></g></g></svg>