<svg xmlns="http://www.w3.org/2000/svg" viewBox="0 0 24 24"><defs><style>.cls-1{fill:#fa8e07;}</style></defs><g id="图层_2" data-name="图层 2"><g id="图层_1-2" data-name="图层 1"><path class="cls-1" d="M12,8.2c6.82,0,11,2.21,11,3.8s-4.18,3.8-11,3.8S1,13.59,1,12,5.18,8.2,12,8.2m0-1C5.37,7.2,0,9.35,0,12s5.37,4.8,12,4.8S24,14.65,24,12,18.63,7.2,12,7.2Z"/><path class="cls-1" d="M12,1c1.59,0,3.8,4.18,3.8,11S13.59,23,12,23,8.2,18.82,8.2,12,10.41,1,12,1m0-1C9.35,0,7.2,5.37,7.2,12S9.35,24,12,24s4.8-5.37,4.8-12S14.65,0,12,0Z"/><path class="cls-1" d="M12,1A11,11,0,1,1,1,12,11,11,0,0,1,12,1m0-1A12,12,0,1,0,24,12,12,12,0,0,0,12,0Z"/></g></g></svg>