<svg xmlns="http://www.w3.org/2000/svg" xmlns:xlink="http://www.w3.org/1999/xlink" viewBox="0 0 24 24"><defs><style>.cls-1{fill:url(#未命名的渐变_220);}.cls-2{fill:none;}.cls-3{fill:#fff;}</style><linearGradient id="未命名的渐变_220" x1="11.84" y1="24" x2="12.16" gradientUnits="userSpaceOnUse"><stop offset="0" stop-color="#ff3907"/><stop offset="1" stop-color="#fa8e07"/></linearGradient></defs><g id="图层_2" data-name="图层 2"><g id="图层_1-2" data-name="图层 1"><circle class="cls-1" cx="12" cy="12" r="12"/><rect class="cls-2" x="4.17" y="4.17" width="15.65" height="15.65"/><path class="cls-3" d="M10.43,4.17V5.74H12V4.17h6.27A.77.77,0,0,1,19,5v14.1a.79.79,0,0,1-.77.78H5.73A.77.77,0,0,1,5,19.05V5a.79.79,0,0,1,.77-.78ZM12,5.74V7.3h1.57V5.74ZM10.43,7.3V8.87H12V7.3ZM12,8.87v1.56h1.57V8.87Zm-1.57,1.56V12H12V10.43ZM12,12v1.57H10.43v2.34h3.14V12Z"/></g></g></svg>