<svg xmlns="http://www.w3.org/2000/svg" xmlns:xlink="http://www.w3.org/1999/xlink" viewBox="0 0 24 24"><defs><style>.cls-1{fill:url(#未命名的渐变_296);}.cls-2{fill:none;}.cls-3{fill:#fff;}</style><linearGradient id="未命名的渐变_296" x1="12.13" y1="26.97" x2="11.9" y2="0.77" gradientUnits="userSpaceOnUse"><stop offset="0" stop-color="#048090"/><stop offset="1" stop-color="#04b290"/></linearGradient></defs><g id="图层_2" data-name="图层 2"><g id="图层_1-2" data-name="图层 1"><circle class="cls-1" cx="12" cy="12" r="12"/><rect class="cls-2" x="4.17" y="4.17" width="15.65" height="15.65"/><path class="cls-3" d="M19,9.65V19a.78.78,0,0,1-.77.79H5.73A.77.77,0,0,1,5,19.05V5a.79.79,0,0,1,.78-.78h7.83v4.7a.78.78,0,0,0,.78.78Zm0-1.56H15.13V4.18Zm-10.17,0V9.65h2.35V8.09Zm0,3.13v1.56h6.26V11.22Zm0,3.13v1.56h6.26V14.35Z"/></g></g></svg>