<svg xmlns="http://www.w3.org/2000/svg" xmlns:xlink="http://www.w3.org/1999/xlink" viewBox="0 0 24 24"><defs><style>.cls-1{fill:url(#未命名的渐变_287);}.cls-2{fill:none;}.cls-3{fill:#fff;}</style><linearGradient id="未命名的渐变_287" x1="11.82" y1="25.41" x2="12.13" y2="2.22" gradientUnits="userSpaceOnUse"><stop offset="0" stop-color="#1c6f78"/><stop offset="1" stop-color="#1cb278"/></linearGradient></defs><g id="图层_2" data-name="图层 2"><g id="图层_1-2" data-name="图层 1"><circle class="cls-1" cx="12" cy="12" r="12"/><rect class="cls-2" x="4.17" y="4.17" width="15.65" height="15.65"/><path class="cls-3" d="M4.5,6.75,9.75,4.5l4.5,2.25,4.73-2a.37.37,0,0,1,.49.2.4.4,0,0,1,0,.15V17.25L14.25,19.5l-4.5-2.25L5,19.28a.37.37,0,0,1-.49-.2.4.4,0,0,1,0-.15Zm9.75,11.07V8.38l-.05,0L9.75,6.18v9.44l.05,0Z"/></g></g></svg>