<svg xmlns="http://www.w3.org/2000/svg" xmlns:xlink="http://www.w3.org/1999/xlink" viewBox="0 0 24 24"><defs><style>.cls-1{fill:url(#未命名的渐变_301);}.cls-2{fill:none;}.cls-3{fill:#fff;}</style><linearGradient id="未命名的渐变_301" x1="11.51" y1="24.85" x2="12.44" y2="0.43" gradientUnits="userSpaceOnUse"><stop offset="0" stop-color="#056da0"/><stop offset="1" stop-color="#0592a0"/></linearGradient></defs><g id="图层_2" data-name="图层 2"><g id="图层_1-2" data-name="图层 1"><circle class="cls-1" cx="12" cy="12" r="12"/><rect class="cls-2" x="4.17" y="4.17" width="15.65" height="15.65"/><path class="cls-3" d="M4.89,17V9.15H4.17V7.73H6.31V6.31A.71.71,0,0,1,7,5.6H17a.71.71,0,0,1,.71.71V7.73h2.14V9.15h-.72V17h.72V18.4H4.17V17Zm7.82,0V12H11.29v5ZM9.15,17V12H7.73v5Zm7.12,0V12H14.85v5ZM7.73,6.63v1.1h8.54V6.63Z"/></g></g></svg>