<svg xmlns="http://www.w3.org/2000/svg" xmlns:xlink="http://www.w3.org/1999/xlink" viewBox="0 0 24 24"><defs><style>.cls-1{fill:url(#未命名的渐变_359);}.cls-2{fill:none;}.cls-3{fill:#fff;}</style><linearGradient id="未命名的渐变_359" x1="12.13" y1="24" x2="11.87" gradientUnits="userSpaceOnUse"><stop offset="0" stop-color="#e07b32"/><stop offset="1" stop-color="#e0c332"/></linearGradient></defs><g id="图层_2" data-name="图层 2"><g id="图层_1-2" data-name="图层 1"><circle class="cls-1" cx="12" cy="12" r="12"/><rect class="cls-2" x="4.17" y="4.17" width="15.65" height="15.65"/><path class="cls-3" d="M5.3,7.52l3.06,2,3.05-4.26a.72.72,0,0,1,1-.17.55.55,0,0,1,.17.17l3.05,4.26,3.06-2a.73.73,0,0,1,1.12.69L18.63,18.37a.74.74,0,0,1-.73.65H6.1a.74.74,0,0,1-.73-.65L4.18,8.21a.73.73,0,0,1,.64-.81A.68.68,0,0,1,5.3,7.52ZM12,14.65a1.46,1.46,0,1,0-1.46-1.46A1.46,1.46,0,0,0,12,14.65Z"/></g></g></svg>