<svg xmlns="http://www.w3.org/2000/svg" viewBox="0 0 16 16"><defs><style>.cls-1{fill:none;}.cls-2{fill:#929191;}</style></defs><g id="图层_2" data-name="图层 2"><g id="图层_1-2" data-name="图层 1"><rect class="cls-1" width="16" height="16"/><path class="cls-2" d="M8,.42A5.58,5.58,0,0,1,13.58,6c0,4.33-4.45,8.47-5.58,9.45-1.13-1-5.58-5.12-5.58-9.45A5.58,5.58,0,0,1,8,.42M8,0A6,6,0,0,0,2,6c0,5.2,6,10,6,10s6-4.8,6-10A6,6,0,0,0,8,0Z"/><path class="cls-2" d="M8,4A2,2,0,1,1,6,6,2,2,0,0,1,8,4M8,3.6A2.4,2.4,0,1,0,10.4,6,2.39,2.39,0,0,0,8,3.6Z"/></g></g></svg>